<svg width="1510" height="208" viewBox="0 0 1510 208" fill="none" xmlns="http://www.w3.org/2000/svg">
<g clip-path="url(#clip0_1_2)">
<path d="M163.36 208.16L141.76 187.76C140.8 187.92 139.76 188 138.64 188C137.68 188 136.72 188 135.76 188H79.84C68.16 188 57.6 185.84 48.16 181.52C38.72 177.2 30.56 171.2 23.68 163.52C16.96 155.84 11.76 146.96 8.08 136.88C4.4 126.64 2.56 115.68 2.56 104C2.56 92.48 4.4 81.68 8.08 71.6C11.76 61.36 16.96 52.4 23.68 44.72C30.56 36.88 38.72 30.8 48.16 26.48C57.6 22.16 68.16 20 79.84 20H135.76C147.28 20 157.76 22.16 167.2 26.48C176.64 30.8 184.72 36.88 191.44 44.72C198.32 52.4 203.6 61.36 207.28 71.6C210.96 81.68 212.8 92.48 212.8 104C212.8 115.52 210.96 126.4 207.28 136.64C203.6 146.72 198.4 155.6 191.68 163.28C184.96 170.96 176.96 176.96 167.68 181.28L195.76 208.16H163.36ZM188.8 104C188.8 92.96 186.64 82.88 182.32 73.76C178.16 64.64 172.08 57.44 164.08 52.16C156.24 46.72 146.8 44 135.76 44H79.84C68.8 44 59.28 46.72 51.28 52.16C43.44 57.44 37.36 64.64 33.04 73.76C28.72 82.88 26.56 92.96 26.56 104C26.56 115.04 28.72 125.12 33.04 134.24C37.36 143.2 43.44 150.4 51.28 155.84C59.28 161.28 68.8 164 79.84 164H116.8L94 142.16H127.6L148.48 162.56C156.96 160.48 164.16 156.64 170.08 151.04C176.16 145.44 180.8 138.56 184 130.4C187.2 122.24 188.8 113.44 188.8 104ZM417.248 188H243.488V20H417.248V44H267.488V164H417.248V188ZM396.848 116H279.488V92H396.848V116ZM634.606 140C634.606 148.8 631.886 156.88 626.446 164.24C621.166 171.44 613.966 177.2 604.846 181.52C595.726 185.84 585.646 188 574.606 188H440.446V164H574.606C581.166 164 587.166 162.96 592.606 160.88C598.046 158.64 602.366 155.68 605.566 152C608.926 148.32 610.606 144.32 610.606 140V128H500.446C489.406 128 479.326 125.28 470.206 119.84C461.246 114.4 454.046 107.2 448.606 98.24C443.166 89.12 440.446 79.04 440.446 68V20H464.446V68C464.446 74.56 466.046 80.64 469.246 86.24C472.446 91.68 476.766 96 482.206 99.2C487.806 102.4 493.886 104 500.446 104H610.606V20H634.606V140ZM834.126 188H673.566V20H697.566V164H834.126V188ZM1051.16 104C1051.16 115.68 1049.32 126.64 1045.64 136.88C1041.96 146.96 1036.68 155.84 1029.8 163.52C1023.08 171.2 1015 177.2 1005.56 181.52C996.119 185.84 985.639 188 974.119 188H918.199C906.519 188 895.959 185.84 886.519 181.52C877.079 177.2 868.919 171.2 862.039 163.52C855.319 155.84 850.119 146.96 846.439 136.88C842.759 126.64 840.919 115.68 840.919 104C840.919 92.48 842.759 81.68 846.439 71.6C850.119 61.36 855.319 52.4 862.039 44.72C868.919 36.88 877.079 30.8 886.519 26.48C895.959 22.16 906.519 20 918.199 20H974.119C985.639 20 996.119 22.16 1005.56 26.48C1015 30.8 1023.08 36.88 1029.8 44.72C1036.68 52.4 1041.96 61.36 1045.64 71.6C1049.32 81.68 1051.16 92.48 1051.16 104ZM1027.16 104C1027.16 92.96 1025 82.88 1020.68 73.76C1016.52 64.64 1010.44 57.44 1002.44 52.16C994.599 46.72 985.159 44 974.119 44H918.199C907.159 44 897.639 46.72 889.639 52.16C881.799 57.44 875.719 64.64 871.399 73.76C867.079 82.88 864.919 92.96 864.919 104C864.919 115.04 867.079 125.12 871.399 134.24C875.719 143.2 881.799 150.4 889.639 155.84C897.639 161.28 907.159 164 918.199 164H974.119C985.159 164 994.599 161.28 1002.44 155.84C1010.44 150.4 1016.52 143.2 1020.68 134.24C1025 125.12 1027.16 115.04 1027.16 104ZM1282.49 104C1282.49 115.68 1280.65 126.64 1276.97 136.88C1273.29 146.96 1268.01 155.84 1261.13 163.52C1254.41 171.2 1246.33 177.2 1236.89 181.52C1227.45 185.84 1216.97 188 1205.45 188H1149.53C1137.85 188 1127.29 185.84 1117.85 181.52C1108.41 177.2 1100.25 171.2 1093.37 163.52C1086.65 155.84 1081.45 146.96 1077.77 136.88C1074.09 126.64 1072.25 115.68 1072.25 104C1072.25 92.48 1074.09 81.68 1077.77 71.6C1081.45 61.36 1086.65 52.4 1093.37 44.72C1100.25 36.88 1108.41 30.8 1117.85 26.48C1127.29 22.16 1137.85 20 1149.53 20H1205.45C1216.97 20 1227.45 22.16 1236.89 26.48C1246.33 30.8 1254.41 36.88 1261.13 44.72C1268.01 52.4 1273.29 61.36 1276.97 71.6C1280.65 81.68 1282.49 92.48 1282.49 104ZM1258.49 104C1258.49 92.96 1256.33 82.88 1252.01 73.76C1247.85 64.64 1241.77 57.44 1233.77 52.16C1225.93 46.72 1216.49 44 1205.45 44H1149.53C1138.49 44 1128.97 46.72 1120.97 52.16C1113.13 57.44 1107.05 64.64 1102.73 73.76C1098.41 82.88 1096.25 92.96 1096.25 104C1096.25 115.04 1098.41 125.12 1102.73 134.24C1107.05 143.2 1113.13 150.4 1120.97 155.84C1128.97 161.28 1138.49 164 1149.53 164H1205.45C1216.49 164 1225.93 161.28 1233.77 155.84C1241.77 150.4 1247.85 143.2 1252.01 134.24C1256.33 125.12 1258.49 115.04 1258.49 104ZM1507.1 80C1507.1 91.04 1504.38 101.12 1498.94 110.24C1493.66 119.2 1486.46 126.4 1477.34 131.84C1468.22 137.28 1458.14 140 1447.1 140H1350.62V116.24H1447.1C1453.82 116.24 1459.9 114.64 1465.34 111.44C1470.78 108.08 1475.1 103.68 1478.3 98.24C1481.5 92.64 1483.1 86.56 1483.1 80C1483.1 73.28 1481.5 67.2 1478.3 61.76C1475.1 56.32 1470.78 52 1465.34 48.8C1459.9 45.6 1453.82 44 1447.1 44H1337.18V188H1313.18V20H1447.1C1458.14 20 1468.22 22.72 1477.34 28.16C1486.46 33.44 1493.66 40.64 1498.94 49.76C1504.38 58.88 1507.1 68.96 1507.1 80Z" fill="#D9D9D9"/>
</g>
<defs>
<clipPath id="clip0_1_2">
<rect width="1510" height="208" fill="white"/>
</clipPath>
</defs>
</svg>
