<svg width="1505" height="209" viewBox="0 0 1505 209" fill="none" xmlns="http://www.w3.org/2000/svg">
<g clip-path="url(#clip0_1_2)">
<path d="M161.36 201.16L139.76 180.76C138.8 180.92 137.76 181 136.64 181C135.68 181 134.72 181 133.76 181H77.84C66.16 181 55.6 178.84 46.16 174.52C36.72 170.2 28.56 164.2 21.68 156.52C14.96 148.84 9.76 139.96 6.08 129.88C2.4 119.64 0.560001 108.68 0.560001 97C0.560001 85.48 2.4 74.68 6.08 64.6C9.76 54.36 14.96 45.4 21.68 37.72C28.56 29.88 36.72 23.8 46.16 19.48C55.6 15.16 66.16 13 77.84 13H133.76C145.28 13 155.76 15.16 165.2 19.48C174.64 23.8 182.72 29.88 189.44 37.72C196.32 45.4 201.6 54.36 205.28 64.6C208.96 74.68 210.8 85.48 210.8 97C210.8 108.52 208.96 119.4 205.28 129.64C201.6 139.72 196.4 148.6 189.68 156.28C182.96 163.96 174.96 169.96 165.68 174.28L193.76 201.16H161.36ZM186.8 97C186.8 85.96 184.64 75.88 180.32 66.76C176.16 57.64 170.08 50.44 162.08 45.16C154.24 39.72 144.8 37 133.76 37H77.84C66.8 37 57.28 39.72 49.28 45.16C41.44 50.44 35.36 57.64 31.04 66.76C26.72 75.88 24.56 85.96 24.56 97C24.56 108.04 26.72 118.12 31.04 127.24C35.36 136.2 41.44 143.4 49.28 148.84C57.28 154.28 66.8 157 77.84 157H114.8L92 135.16H125.6L146.48 155.56C154.96 153.48 162.16 149.64 168.08 144.04C174.16 138.44 178.8 131.56 182 123.4C185.2 115.24 186.8 106.44 186.8 97ZM415.248 181H241.488V13H415.248V37H265.488V157H415.248V181ZM394.848 109H277.488V85H394.848V109ZM632.606 133C632.606 141.8 629.886 149.88 624.446 157.24C619.166 164.44 611.966 170.2 602.846 174.52C593.726 178.84 583.646 181 572.606 181H438.446V157H572.606C579.166 157 585.166 155.96 590.606 153.88C596.046 151.64 600.366 148.68 603.566 145C606.926 141.32 608.606 137.32 608.606 133V121H498.446C487.406 121 477.326 118.28 468.206 112.84C459.246 107.4 452.046 100.2 446.606 91.24C441.166 82.12 438.446 72.04 438.446 61V13H462.446V61C462.446 67.56 464.046 73.64 467.246 79.24C470.446 84.68 474.766 89 480.206 92.2C485.806 95.4 491.886 97 498.446 97H608.606V13H632.606V133ZM832.126 181H671.566V13H695.566V157H832.126V181ZM1049.16 97C1049.16 108.68 1047.32 119.64 1043.64 129.88C1039.96 139.96 1034.68 148.84 1027.8 156.52C1021.08 164.2 1013 170.2 1003.56 174.52C994.119 178.84 983.639 181 972.119 181H916.199C904.519 181 893.959 178.84 884.519 174.52C875.079 170.2 866.919 164.2 860.039 156.52C853.319 148.84 848.119 139.96 844.439 129.88C840.759 119.64 838.919 108.68 838.919 97C838.919 85.48 840.759 74.68 844.439 64.6C848.119 54.36 853.319 45.4 860.039 37.72C866.919 29.88 875.079 23.8 884.519 19.48C893.959 15.16 904.519 13 916.199 13H972.119C983.639 13 994.119 15.16 1003.56 19.48C1013 23.8 1021.08 29.88 1027.8 37.72C1034.68 45.4 1039.96 54.36 1043.64 64.6C1047.32 74.68 1049.16 85.48 1049.16 97ZM1025.16 97C1025.16 85.96 1023 75.88 1018.68 66.76C1014.52 57.64 1008.44 50.44 1000.44 45.16C992.599 39.72 983.159 37 972.119 37H916.199C905.159 37 895.639 39.72 887.639 45.16C879.799 50.44 873.719 57.64 869.399 66.76C865.079 75.88 862.919 85.96 862.919 97C862.919 108.04 865.079 118.12 869.399 127.24C873.719 136.2 879.799 143.4 887.639 148.84C895.639 154.28 905.159 157 916.199 157H972.119C983.159 157 992.599 154.28 1000.44 148.84C1008.44 143.4 1014.52 136.2 1018.68 127.24C1023 118.12 1025.16 108.04 1025.16 97ZM1280.49 97C1280.49 108.68 1278.65 119.64 1274.97 129.88C1271.29 139.96 1266.01 148.84 1259.13 156.52C1252.41 164.2 1244.33 170.2 1234.89 174.52C1225.45 178.84 1214.97 181 1203.45 181H1147.53C1135.85 181 1125.29 178.84 1115.85 174.52C1106.41 170.2 1098.25 164.2 1091.37 156.52C1084.65 148.84 1079.45 139.96 1075.77 129.88C1072.09 119.64 1070.25 108.68 1070.25 97C1070.25 85.48 1072.09 74.68 1075.77 64.6C1079.45 54.36 1084.65 45.4 1091.37 37.72C1098.25 29.88 1106.41 23.8 1115.85 19.48C1125.29 15.16 1135.85 13 1147.53 13H1203.45C1214.97 13 1225.45 15.16 1234.89 19.48C1244.33 23.8 1252.41 29.88 1259.13 37.72C1266.01 45.4 1271.29 54.36 1274.97 64.6C1278.65 74.68 1280.49 85.48 1280.49 97ZM1256.49 97C1256.49 85.96 1254.33 75.88 1250.01 66.76C1245.85 57.64 1239.77 50.44 1231.77 45.16C1223.93 39.72 1214.49 37 1203.45 37H1147.53C1136.49 37 1126.97 39.72 1118.97 45.16C1111.13 50.44 1105.05 57.64 1100.73 66.76C1096.41 75.88 1094.25 85.96 1094.25 97C1094.25 108.04 1096.41 118.12 1100.73 127.24C1105.05 136.2 1111.13 143.4 1118.97 148.84C1126.97 154.28 1136.49 157 1147.53 157H1203.45C1214.49 157 1223.93 154.28 1231.77 148.84C1239.77 143.4 1245.85 136.2 1250.01 127.24C1254.33 118.12 1256.49 108.04 1256.49 97ZM1505.1 73C1505.1 84.04 1502.38 94.12 1496.94 103.24C1491.66 112.2 1484.46 119.4 1475.34 124.84C1466.22 130.28 1456.14 133 1445.1 133H1348.62V109.24H1445.1C1451.82 109.24 1457.9 107.64 1463.34 104.44C1468.78 101.08 1473.1 96.68 1476.3 91.24C1479.5 85.64 1481.1 79.56 1481.1 73C1481.1 66.28 1479.5 60.2 1476.3 54.76C1473.1 49.32 1468.78 45 1463.34 41.8C1457.9 38.6 1451.82 37 1445.1 37H1335.18V181H1311.18V13H1445.1C1456.14 13 1466.22 15.72 1475.34 21.16C1484.46 26.44 1491.66 33.64 1496.94 42.76C1502.38 51.88 1505.1 61.96 1505.1 73Z" fill="#D9D9D9"/>
</g>
<defs>
<clipPath id="clip0_1_2">
<rect width="1505" height="209" fill="white"/>
</clipPath>
</defs>
</svg>
