<svg width="3175" height="701" viewBox="0 0 3175 701" fill="none" xmlns="http://www.w3.org/2000/svg">
<g clip-path="url(#clip0_1_2)">
<mask id="mask0_1_2" style="mask-type:alpha" maskUnits="userSpaceOnUse" x="-1" y="0" width="545" height="702">
<mask id="mask1_1_2" style="mask-type:alpha" maskUnits="userSpaceOnUse" x="45" y="0" width="452" height="225">
<rect x="45" width="452" height="225" fill="#D9D9D9"/>
</mask>
<g mask="url(#mask1_1_2)">
<circle cx="270" cy="225" r="162.5" stroke="black" stroke-width="125"/>
</g>
<path d="M430.253 314.75L322 221L538.506 221L430.253 314.75Z" fill="black"/>
<mask id="mask2_1_2" style="mask-type:alpha" maskUnits="userSpaceOnUse" x="40" y="475" width="452" height="225">
<rect x="492" y="700" width="452" height="225" transform="rotate(-180 492 700)" fill="#D9D9D9"/>
</mask>
<g mask="url(#mask2_1_2)">
<circle cx="267" cy="475" r="162.5" transform="rotate(-180 267 475)" stroke="black" stroke-width="125"/>
</g>
<path d="M108 383L216.253 476.75H-0.253174L108 383Z" fill="black"/>
<rect x="367" y="350" width="125" height="125" fill="black"/>
<rect x="45" y="225" width="125" height="125" fill="black"/>
<rect x="318" y="564.388" width="125" height="193.553" transform="rotate(-45 318 564.388)" fill="black"/>
</mask>
<g mask="url(#mask0_1_2)">
<rect x="-4" width="547" height="701" fill="#D9D9D9"/>
</g>
<path d="M623.7 667V216.2H956.2V303H736.4V397.5H930.3V485.7H736.4V580.2H956.2V667H623.7ZM1142.93 667V501.1L981.23 216.2H1098.83L1199.63 403.1L1300.43 216.2H1418.03L1256.33 501.1V667H1142.93ZM1446.75 667V216.2H1559.45V580.2H1772.25V667H1446.75ZM2019.75 674C1946.48 674 1890.72 655.333 1852.45 618C1814.18 580.667 1795.05 522.567 1795.05 443.7C1795.05 360.167 1814.18 300.2 1852.45 263.8C1890.72 227.4 1946.48 209.2 2019.75 209.2C2093.02 209.2 2148.78 227.4 2187.05 263.8C2225.32 300.2 2244.45 360.167 2244.45 443.7C2244.45 522.567 2225.32 580.667 2187.05 618C2148.78 655.333 2093.02 674 2019.75 674ZM2019.75 578.1C2057.55 578.1 2085.08 567.367 2102.35 545.9C2120.08 523.967 2128.95 489.9 2128.95 443.7C2128.95 393.3 2120.08 357.833 2102.35 337.3C2085.08 316.3 2057.55 305.8 2019.75 305.8C1981.48 305.8 1953.48 316.3 1935.75 337.3C1918.48 357.833 1909.85 393.3 1909.85 443.7C1909.85 489.9 1918.48 523.967 1935.75 545.9C1953.48 567.367 1981.48 578.1 2019.75 578.1ZM2512.62 674C2439.36 674 2383.59 655.333 2345.32 618C2307.06 580.667 2287.92 522.567 2287.92 443.7C2287.92 360.167 2307.06 300.2 2345.32 263.8C2383.59 227.4 2439.36 209.2 2512.62 209.2C2585.89 209.2 2641.66 227.4 2679.92 263.8C2718.19 300.2 2737.32 360.167 2737.32 443.7C2737.32 522.567 2718.19 580.667 2679.92 618C2641.66 655.333 2585.89 674 2512.62 674ZM2512.62 578.1C2550.42 578.1 2577.96 567.367 2595.22 545.9C2612.96 523.967 2621.82 489.9 2621.82 443.7C2621.82 393.3 2612.96 357.833 2595.22 337.3C2577.96 316.3 2550.42 305.8 2512.62 305.8C2474.36 305.8 2446.36 316.3 2428.62 337.3C2411.36 357.833 2402.72 393.3 2402.72 443.7C2402.72 489.9 2411.36 523.967 2428.62 545.9C2446.36 567.367 2474.36 578.1 2512.62 578.1ZM2794.79 667V216.2H3016.69C3052.63 216.2 3082.26 223.433 3105.59 237.9C3128.93 251.9 3146.19 271.033 3157.39 295.3C3169.06 319.567 3174.89 346.867 3174.89 377.2C3174.89 408 3168.36 435.3 3155.29 459.1C3142.23 482.9 3123.56 501.567 3099.29 515.1C3075.49 528.167 3047.03 534.7 3013.89 534.7H2907.49V667H2794.79ZM2907.49 447.9H2988.69C3012.49 447.9 3030.23 441.367 3041.89 428.3C3054.03 415.233 3060.09 397.967 3060.09 376.5C3060.09 353.167 3054.49 335.2 3043.29 322.6C3032.56 309.533 3015.53 303 2992.19 303H2907.49V447.9Z" fill="#D9D9D9"/>
</g>
<defs>
<clipPath id="clip0_1_2">
<rect width="3175" height="701" fill="white"/>
</clipPath>
</defs>
</svg>
