<svg width="1554" height="460" viewBox="0 0 1554 460" fill="none" xmlns="http://www.w3.org/2000/svg">
<g clip-path="url(#clip0_1_2)">
<path d="M35.5882 389C35.5882 389 35.5882 387.235 35.5882 383.706V371.353V359.074V353.706H40.8824H53.2353H65.5147H70.8824C70.8824 353.706 70.8824 355.495 70.8824 359.074V353.706H76.1765H88.5294H100.809H106.176C106.176 353.706 106.176 355.495 106.176 359.074V353.706H111.471H123.824H136.103H141.471C141.471 353.706 141.471 355.495 141.471 359.074V371.353V383.706V389C141.471 389 139.681 389 136.103 389H123.824H111.471H106.176C106.176 389 106.176 387.235 106.176 383.706V389C106.176 389 104.387 389 100.809 389H88.5294H76.1765H70.8824C70.8824 389 70.8824 387.235 70.8824 383.706V389C70.8824 389 69.0931 389 65.5147 389H53.2353H40.8824H35.5882ZM0.29412 353.706C0.29412 353.706 0.29412 351.941 0.29412 348.412V336.059V323.779V318.412C0.29412 318.412 0.29412 316.647 0.29412 313.118V300.765V288.485V283.118C0.29412 283.118 0.29412 281.353 0.29412 277.824V265.471V253.191V247.824C0.29412 247.824 0.29412 246.059 0.29412 242.529V230.176V217.897V212.529C0.29412 212.529 0.29412 210.765 0.29412 207.235V194.882V182.603V177.235C0.29412 177.235 0.29412 175.471 0.29412 171.941V159.588V147.309V141.941C0.29412 141.941 0.29412 140.176 0.29412 136.647V124.294V112.015V106.647C0.29412 106.647 0.29412 104.882 0.29412 101.353V89V76.7206V71.3529C0.29412 71.3529 0.29412 69.5882 0.29412 66.0588V53.7058V41.4264V36.0588H5.58824H17.9412H30.2206H35.5882C35.5882 36.0588 35.5882 37.848 35.5882 41.4264V53.7058V66.0588V71.3529C35.5882 71.3529 33.799 71.3529 30.2206 71.3529H35.5882C35.5882 71.3529 35.5882 73.1421 35.5882 76.7206V89V101.353V106.647C35.5882 106.647 33.799 106.647 30.2206 106.647H35.5882C35.5882 106.647 35.5882 108.436 35.5882 112.015V124.294V136.647V141.941C35.5882 141.941 33.799 141.941 30.2206 141.941H35.5882C35.5882 141.941 35.5882 143.73 35.5882 147.309V159.588V171.941V177.235C35.5882 177.235 33.799 177.235 30.2206 177.235H35.5882C35.5882 177.235 35.5882 179.025 35.5882 182.603V194.882V207.235V212.529C35.5882 212.529 33.799 212.529 30.2206 212.529H35.5882C35.5882 212.529 35.5882 214.319 35.5882 217.897V230.176V242.529V247.824C35.5882 247.824 33.799 247.824 30.2206 247.824H35.5882C35.5882 247.824 35.5882 249.613 35.5882 253.191V265.471V277.824V283.118C35.5882 283.118 33.799 283.118 30.2206 283.118H35.5882C35.5882 283.118 35.5882 284.907 35.5882 288.485V300.765V313.118V318.412C35.5882 318.412 33.799 318.412 30.2206 318.412H35.5882C35.5882 318.412 35.5882 320.201 35.5882 323.779V336.059V348.412V353.706C35.5882 353.706 33.799 353.706 30.2206 353.706H17.9412H5.58824H0.29412ZM141.471 353.706C141.471 353.706 141.471 351.941 141.471 348.412V336.059V323.779V318.412C141.471 318.412 141.471 316.647 141.471 313.118V300.765V288.485V283.118C141.471 283.118 141.471 281.353 141.471 277.824V265.471V253.191V247.824C141.471 247.824 141.471 246.059 141.471 242.529V230.176V217.897V212.529C141.471 212.529 141.471 210.765 141.471 207.235V194.882V182.603V177.235C141.471 177.235 141.471 175.471 141.471 171.941V159.588V147.309V141.941C141.471 141.941 141.471 140.176 141.471 136.647V124.294V112.015V106.647C141.471 106.647 141.471 104.882 141.471 101.353V89V76.7206V71.3529C141.471 71.3529 141.471 69.5882 141.471 66.0588V53.7058V41.4264V36.0588H146.765H159.118H171.397H176.765C176.765 36.0588 176.765 37.848 176.765 41.4264V53.7058V66.0588V71.3529C176.765 71.3529 174.975 71.3529 171.397 71.3529H176.765C176.765 71.3529 176.765 73.1421 176.765 76.7206V89V101.353V106.647C176.765 106.647 174.975 106.647 171.397 106.647H176.765C176.765 106.647 176.765 108.436 176.765 112.015V124.294V136.647V141.941C176.765 141.941 174.975 141.941 171.397 141.941H176.765C176.765 141.941 176.765 143.73 176.765 147.309V159.588V171.941V177.235C176.765 177.235 174.975 177.235 171.397 177.235H176.765C176.765 177.235 176.765 179.025 176.765 182.603V194.882V207.235V212.529C176.765 212.529 174.975 212.529 171.397 212.529H176.765C176.765 212.529 176.765 214.319 176.765 217.897V230.176V242.529V247.824C176.765 247.824 174.975 247.824 171.397 247.824H176.765C176.765 247.824 176.765 249.613 176.765 253.191V265.471V277.824V283.118C176.765 283.118 174.975 283.118 171.397 283.118H176.765C176.765 283.118 176.765 284.907 176.765 288.485V300.765V313.118V318.412C176.765 318.412 174.975 318.412 171.397 318.412H176.765C176.765 318.412 176.765 320.201 176.765 323.779V336.059V348.412V353.706C176.765 353.706 174.975 353.706 171.397 353.706H159.118H146.765H141.471ZM35.5882 36.0588C35.5882 36.0588 35.5882 34.2941 35.5882 30.7647V18.4117V6.13233V0.764693H40.8824H53.2353H65.5147H70.8824C70.8824 0.764693 70.8824 2.55391 70.8824 6.13233V0.764693H76.1765H88.5294H100.809H106.176C106.176 0.764693 106.176 2.55391 106.176 6.13233V0.764693H111.471H123.824H136.103H141.471C141.471 0.764693 141.471 2.55391 141.471 6.13233V18.4117V30.7647V36.0588C141.471 36.0588 139.681 36.0588 136.103 36.0588H123.824H111.471H106.176C106.176 36.0588 106.176 34.2941 106.176 30.7647V36.0588C106.176 36.0588 104.387 36.0588 100.809 36.0588H88.5294H76.1765H70.8824C70.8824 36.0588 70.8824 34.2941 70.8824 30.7647V36.0588C70.8824 36.0588 69.0931 36.0588 65.5147 36.0588H53.2353H40.8824H35.5882ZM70.8824 459.588C70.8824 459.588 70.8824 457.799 70.8824 454.221V441.941V429.588V424.294H76.1765H88.5294H100.809H106.176C106.176 424.294 106.176 426.059 106.176 429.588V424.294H111.471H123.824H136.103H141.471C141.471 424.294 141.471 426.059 141.471 429.588V424.294H146.765H159.118H171.397H176.765C176.765 424.294 176.765 426.059 176.765 429.588V424.294H182.059H194.412H206.691H212.059C212.059 424.294 212.059 426.059 212.059 429.588V441.941V454.221V459.588C212.059 459.588 210.27 459.588 206.691 459.588H194.412H182.059H176.765C176.765 459.588 176.765 457.799 176.765 454.221V459.588C176.765 459.588 174.975 459.588 171.397 459.588H159.118H146.765H141.471C141.471 459.588 141.471 457.799 141.471 454.221V459.588C141.471 459.588 139.681 459.588 136.103 459.588H123.824H111.471H106.176C106.176 459.588 106.176 457.799 106.176 454.221V459.588C106.176 459.588 104.387 459.588 100.809 459.588H88.5294H76.1765H70.8824ZM247.56 389C247.56 389 247.56 387.235 247.56 383.706V371.353V359.074V353.706C247.56 353.706 247.56 351.941 247.56 348.412V336.059V323.779V318.412C247.56 318.412 247.56 316.647 247.56 313.118V300.765V288.485V283.118C247.56 283.118 247.56 281.353 247.56 277.824V265.471V253.191V247.824C247.56 247.824 247.56 246.059 247.56 242.529V230.176V217.897V212.529C247.56 212.529 247.56 210.765 247.56 207.235V194.882V182.603V177.235C247.56 177.235 247.56 175.471 247.56 171.941V159.588V147.309V141.941C247.56 141.941 247.56 140.176 247.56 136.647V124.294V112.015V106.647C247.56 106.647 247.56 104.882 247.56 101.353V89V76.7206V71.3529C247.56 71.3529 247.56 69.5882 247.56 66.0588V53.7058V41.4264V36.0588C247.56 36.0588 247.56 34.2941 247.56 30.7647V18.4117V6.13233V0.764693H252.854H265.207H277.486H282.854C282.854 0.764693 282.854 2.55391 282.854 6.13233V0.764693H288.148H300.501H312.78H318.148C318.148 0.764693 318.148 2.55391 318.148 6.13233V0.764693H323.442H335.795H348.074H353.442C353.442 0.764693 353.442 2.55391 353.442 6.13233V0.764693H358.736H371.089H383.369H388.736C388.736 0.764693 388.736 2.55391 388.736 6.13233V18.4117V30.7647V36.0588C388.736 36.0588 386.947 36.0588 383.369 36.0588H371.089H358.736H353.442C353.442 36.0588 353.442 34.2941 353.442 30.7647V36.0588C353.442 36.0588 351.653 36.0588 348.074 36.0588H335.795H323.442H318.148C318.148 36.0588 318.148 34.2941 318.148 30.7647V36.0588C318.148 36.0588 316.359 36.0588 312.78 36.0588H300.501H288.148H282.854C282.854 36.0588 282.854 34.2941 282.854 30.7647V36.0588C282.854 36.0588 281.065 36.0588 277.486 36.0588H282.854C282.854 36.0588 282.854 37.848 282.854 41.4264V53.7058V66.0588V71.3529C282.854 71.3529 281.065 71.3529 277.486 71.3529H282.854C282.854 71.3529 282.854 73.1421 282.854 76.7206V89V101.353V106.647C282.854 106.647 281.065 106.647 277.486 106.647H282.854C282.854 106.647 282.854 108.436 282.854 112.015V124.294V136.647V141.941C282.854 141.941 281.065 141.941 277.486 141.941H282.854C282.854 141.941 282.854 143.73 282.854 147.309V159.588V171.941V177.235C282.854 177.235 281.065 177.235 277.486 177.235H282.854C282.854 177.235 282.854 179.025 282.854 182.603V177.235H288.148H300.501H312.78H318.148C318.148 177.235 318.148 179.025 318.148 182.603V177.235H323.442H335.795H348.074H353.442C353.442 177.235 353.442 179.025 353.442 182.603V177.235H358.736H371.089H383.369H388.736C388.736 177.235 388.736 179.025 388.736 182.603V194.882V207.235V212.529C388.736 212.529 386.947 212.529 383.369 212.529H371.089H358.736H353.442C353.442 212.529 353.442 210.765 353.442 207.235V212.529C353.442 212.529 351.653 212.529 348.074 212.529H335.795H323.442H318.148C318.148 212.529 318.148 210.765 318.148 207.235V212.529C318.148 212.529 316.359 212.529 312.78 212.529H300.501H288.148H282.854C282.854 212.529 282.854 210.765 282.854 207.235V212.529C282.854 212.529 281.065 212.529 277.486 212.529H282.854C282.854 212.529 282.854 214.319 282.854 217.897V230.176V242.529V247.824C282.854 247.824 281.065 247.824 277.486 247.824H282.854C282.854 247.824 282.854 249.613 282.854 253.191V265.471V277.824V283.118C282.854 283.118 281.065 283.118 277.486 283.118H282.854C282.854 283.118 282.854 284.907 282.854 288.485V300.765V313.118V318.412C282.854 318.412 281.065 318.412 277.486 318.412H282.854C282.854 318.412 282.854 320.201 282.854 323.779V336.059V348.412V353.706C282.854 353.706 281.065 353.706 277.486 353.706H282.854C282.854 353.706 282.854 355.495 282.854 359.074V353.706H288.148H300.501H312.78H318.148C318.148 353.706 318.148 355.495 318.148 359.074V353.706H323.442H335.795H348.074H353.442C353.442 353.706 353.442 355.495 353.442 359.074V353.706H358.736H371.089H383.369H388.736C388.736 353.706 388.736 355.495 388.736 359.074V371.353V383.706V389C388.736 389 386.947 389 383.369 389H371.089H358.736H353.442C353.442 389 353.442 387.235 353.442 383.706V389C353.442 389 351.653 389 348.074 389H335.795H323.442H318.148C318.148 389 318.148 387.235 318.148 383.706V389C318.148 389 316.359 389 312.78 389H300.501H288.148H282.854C282.854 389 282.854 387.235 282.854 383.706V389C282.854 389 281.065 389 277.486 389H265.207H252.854H247.56ZM512.093 389C512.093 389 512.093 387.235 512.093 383.706V371.353V359.074V353.706C512.093 353.706 512.093 351.941 512.093 348.412V336.059V323.779V318.412C512.093 318.412 512.093 316.647 512.093 313.118V300.765V288.485V283.118C512.093 283.118 512.093 281.353 512.093 277.824V265.471V253.191V247.824H517.387H529.74H542.02H547.387C547.387 247.824 547.387 249.613 547.387 253.191V265.471V277.824V283.118C547.387 283.118 545.598 283.118 542.02 283.118H547.387C547.387 283.118 547.387 284.907 547.387 288.485V300.765V313.118V318.412C547.387 318.412 545.598 318.412 542.02 318.412H547.387C547.387 318.412 547.387 320.201 547.387 323.779V336.059V348.412V353.706C547.387 353.706 545.598 353.706 542.02 353.706H547.387C547.387 353.706 547.387 355.495 547.387 359.074V371.353V383.706V389C547.387 389 545.598 389 542.02 389H529.74H517.387H512.093ZM494.446 247.824C494.446 247.824 494.446 246.059 494.446 242.529V230.176V217.897V212.529H499.74H512.093H524.373H529.74C529.74 212.529 529.74 214.319 529.74 217.897V212.529H535.034H547.387H559.667H565.034C565.034 212.529 565.034 214.319 565.034 217.897V230.176V242.529V247.824C565.034 247.824 563.245 247.824 559.667 247.824H547.387H535.034H529.74C529.74 247.824 529.74 246.059 529.74 242.529V247.824C529.74 247.824 527.951 247.824 524.373 247.824H512.093H499.74H494.446ZM476.799 212.529C476.799 212.529 476.799 210.765 476.799 207.235V194.882V182.603V177.235H482.093H494.446H506.726H512.093C512.093 177.235 512.093 179.025 512.093 182.603V194.882V207.235V212.529C512.093 212.529 510.304 212.529 506.726 212.529H494.446H482.093H476.799ZM547.387 212.529C547.387 212.529 547.387 210.765 547.387 207.235V194.882V182.603V177.235H552.682H565.034H577.314H582.682C582.682 177.235 582.682 179.025 582.682 182.603V194.882V207.235V212.529C582.682 212.529 580.892 212.529 577.314 212.529H565.034H552.682H547.387ZM459.152 177.235C459.152 177.235 459.152 175.471 459.152 171.941V159.588V147.309V141.941H464.446H476.799H489.079H494.446C494.446 141.941 494.446 143.73 494.446 147.309V159.588V171.941V177.235C494.446 177.235 492.657 177.235 489.079 177.235H476.799H464.446H459.152ZM565.034 177.235C565.034 177.235 565.034 175.471 565.034 171.941V159.588V147.309V141.941H570.329H582.682H594.961H600.329C600.329 141.941 600.329 143.73 600.329 147.309V159.588V171.941V177.235C600.329 177.235 598.539 177.235 594.961 177.235H582.682H570.329H565.034ZM441.505 141.941C441.505 141.941 441.505 140.176 441.505 136.647V124.294V112.015V106.647H446.799H459.152H471.432H476.799C476.799 106.647 476.799 108.436 476.799 112.015V124.294V136.647V141.941C476.799 141.941 475.01 141.941 471.432 141.941H459.152H446.799H441.505ZM582.682 141.941C582.682 141.941 582.682 140.176 582.682 136.647V124.294V112.015V106.647H587.976H600.329H612.608H617.976C617.976 106.647 617.976 108.436 617.976 112.015V124.294V136.647V141.941C617.976 141.941 616.186 141.941 612.608 141.941H600.329H587.976H582.682ZM423.858 106.647C423.858 106.647 423.858 104.882 423.858 101.353V89V76.7206V71.3529C423.858 71.3529 423.858 69.5882 423.858 66.0588V53.7058V41.4264V36.0588C423.858 36.0588 423.858 34.2941 423.858 30.7647V18.4117V6.13233V0.764693H429.152H441.505H453.784H459.152C459.152 0.764693 459.152 2.55391 459.152 6.13233V18.4117V30.7647V36.0588C459.152 36.0588 457.363 36.0588 453.784 36.0588H459.152C459.152 36.0588 459.152 37.848 459.152 41.4264V53.7058V66.0588V71.3529C459.152 71.3529 457.363 71.3529 453.784 71.3529H459.152C459.152 71.3529 459.152 73.1421 459.152 76.7206V89V101.353V106.647C459.152 106.647 457.363 106.647 453.784 106.647H441.505H429.152H423.858ZM600.329 106.647C600.329 106.647 600.329 104.882 600.329 101.353V89V76.7206V71.3529C600.329 71.3529 600.329 69.5882 600.329 66.0588V53.7058V41.4264V36.0588C600.329 36.0588 600.329 34.2941 600.329 30.7647V18.4117V6.13233V0.764693H605.623H617.976H630.255H635.623C635.623 0.764693 635.623 2.55391 635.623 6.13233V18.4117V30.7647V36.0588C635.623 36.0588 633.834 36.0588 630.255 36.0588H635.623C635.623 36.0588 635.623 37.848 635.623 41.4264V53.7058V66.0588V71.3529C635.623 71.3529 633.834 71.3529 630.255 71.3529H635.623C635.623 71.3529 635.623 73.1421 635.623 76.7206V89V101.353V106.647C635.623 106.647 633.834 106.647 630.255 106.647H617.976H605.623H600.329ZM688.771 389C688.771 389 688.771 387.235 688.771 383.706V371.353V359.074V353.706C688.771 353.706 688.771 351.941 688.771 348.412V336.059V323.779V318.412C688.771 318.412 688.771 316.647 688.771 313.118V300.765V288.485V283.118C688.771 283.118 688.771 281.353 688.771 277.824V265.471V253.191V247.824C688.771 247.824 688.771 246.059 688.771 242.529V230.176V217.897V212.529C688.771 212.529 688.771 210.765 688.771 207.235V194.882V182.603V177.235C688.771 177.235 688.771 175.471 688.771 171.941V159.588V147.309V141.941C688.771 141.941 688.771 140.176 688.771 136.647V124.294V112.015V106.647C688.771 106.647 688.771 104.882 688.771 101.353V89V76.7206V71.3529C688.771 71.3529 688.771 69.5882 688.771 66.0588V53.7058V41.4264V36.0588C688.771 36.0588 688.771 34.2941 688.771 30.7647V18.4117V6.13233V0.764693H694.065H706.418H718.697H724.065C724.065 0.764693 724.065 2.55391 724.065 6.13233V18.4117V30.7647V36.0588C724.065 36.0588 722.276 36.0588 718.697 36.0588H724.065C724.065 36.0588 724.065 37.848 724.065 41.4264V53.7058V66.0588V71.3529C724.065 71.3529 722.276 71.3529 718.697 71.3529H724.065C724.065 71.3529 724.065 73.1421 724.065 76.7206V89V101.353V106.647C724.065 106.647 722.276 106.647 718.697 106.647H724.065C724.065 106.647 724.065 108.436 724.065 112.015V124.294V136.647V141.941C724.065 141.941 722.276 141.941 718.697 141.941H724.065C724.065 141.941 724.065 143.73 724.065 147.309V159.588V171.941V177.235C724.065 177.235 722.276 177.235 718.697 177.235H724.065C724.065 177.235 724.065 179.025 724.065 182.603V194.882V207.235V212.529C724.065 212.529 722.276 212.529 718.697 212.529H724.065C724.065 212.529 724.065 214.319 724.065 217.897V230.176V242.529V247.824C724.065 247.824 722.276 247.824 718.697 247.824H724.065C724.065 247.824 724.065 249.613 724.065 253.191V265.471V277.824V283.118C724.065 283.118 722.276 283.118 718.697 283.118H724.065C724.065 283.118 724.065 284.907 724.065 288.485V300.765V313.118V318.412C724.065 318.412 722.276 318.412 718.697 318.412H724.065C724.065 318.412 724.065 320.201 724.065 323.779V336.059V348.412V353.706C724.065 353.706 722.276 353.706 718.697 353.706H724.065C724.065 353.706 724.065 355.495 724.065 359.074V353.706H729.359H741.712H753.991H759.359C759.359 353.706 759.359 355.495 759.359 359.074V353.706H764.653H777.006H789.285H794.653C794.653 353.706 794.653 355.495 794.653 359.074V353.706H799.947H812.3H824.58H829.947C829.947 353.706 829.947 355.495 829.947 359.074V371.353V383.706V389C829.947 389 828.158 389 824.58 389H812.3H799.947H794.653C794.653 389 794.653 387.235 794.653 383.706V389C794.653 389 792.864 389 789.285 389H777.006H764.653H759.359C759.359 389 759.359 387.235 759.359 383.706V389C759.359 389 757.57 389 753.991 389H741.712H729.359H724.065C724.065 389 724.065 387.235 724.065 383.706V389C724.065 389 722.276 389 718.697 389H706.418H694.065H688.771ZM918.01 389C918.01 389 918.01 387.235 918.01 383.706V371.353V359.074V353.706H923.304H935.657H947.937H953.304C953.304 353.706 953.304 355.495 953.304 359.074V353.706H958.598H970.951H983.231H988.598C988.598 353.706 988.598 355.495 988.598 359.074V353.706H993.892H1006.25H1018.52H1023.89C1023.89 353.706 1023.89 355.495 1023.89 359.074V371.353V383.706V389C1023.89 389 1022.1 389 1018.52 389H1006.25H993.892H988.598C988.598 389 988.598 387.235 988.598 383.706V389C988.598 389 986.809 389 983.231 389H970.951H958.598H953.304C953.304 389 953.304 387.235 953.304 383.706V389C953.304 389 951.515 389 947.937 389H935.657H923.304H918.01ZM882.716 353.706C882.716 353.706 882.716 351.941 882.716 348.412V336.059V323.779V318.412C882.716 318.412 882.716 316.647 882.716 313.118V300.765V288.485V283.118C882.716 283.118 882.716 281.353 882.716 277.824V265.471V253.191V247.824C882.716 247.824 882.716 246.059 882.716 242.529V230.176V217.897V212.529C882.716 212.529 882.716 210.765 882.716 207.235V194.882V182.603V177.235C882.716 177.235 882.716 175.471 882.716 171.941V159.588V147.309V141.941C882.716 141.941 882.716 140.176 882.716 136.647V124.294V112.015V106.647C882.716 106.647 882.716 104.882 882.716 101.353V89V76.7206V71.3529C882.716 71.3529 882.716 69.5882 882.716 66.0588V53.7058V41.4264V36.0588H888.01H900.363H912.642H918.01C918.01 36.0588 918.01 37.848 918.01 41.4264V53.7058V66.0588V71.3529C918.01 71.3529 916.221 71.3529 912.642 71.3529H918.01C918.01 71.3529 918.01 73.1421 918.01 76.7206V89V101.353V106.647C918.01 106.647 916.221 106.647 912.642 106.647H918.01C918.01 106.647 918.01 108.436 918.01 112.015V124.294V136.647V141.941C918.01 141.941 916.221 141.941 912.642 141.941H918.01C918.01 141.941 918.01 143.73 918.01 147.309V159.588V171.941V177.235C918.01 177.235 916.221 177.235 912.642 177.235H918.01C918.01 177.235 918.01 179.025 918.01 182.603V194.882V207.235V212.529C918.01 212.529 916.221 212.529 912.642 212.529H918.01C918.01 212.529 918.01 214.319 918.01 217.897V230.176V242.529V247.824C918.01 247.824 916.221 247.824 912.642 247.824H918.01C918.01 247.824 918.01 249.613 918.01 253.191V265.471V277.824V283.118C918.01 283.118 916.221 283.118 912.642 283.118H918.01C918.01 283.118 918.01 284.907 918.01 288.485V300.765V313.118V318.412C918.01 318.412 916.221 318.412 912.642 318.412H918.01C918.01 318.412 918.01 320.201 918.01 323.779V336.059V348.412V353.706C918.01 353.706 916.221 353.706 912.642 353.706H900.363H888.01H882.716ZM1023.89 353.706C1023.89 353.706 1023.89 351.941 1023.89 348.412V336.059V323.779V318.412C1023.89 318.412 1023.89 316.647 1023.89 313.118V300.765V288.485V283.118C1023.89 283.118 1023.89 281.353 1023.89 277.824V265.471V253.191V247.824C1023.89 247.824 1023.89 246.059 1023.89 242.529V230.176V217.897V212.529C1023.89 212.529 1023.89 210.765 1023.89 207.235V194.882V182.603V177.235C1023.89 177.235 1023.89 175.471 1023.89 171.941V159.588V147.309V141.941C1023.89 141.941 1023.89 140.176 1023.89 136.647V124.294V112.015V106.647C1023.89 106.647 1023.89 104.882 1023.89 101.353V89V76.7206V71.3529C1023.89 71.3529 1023.89 69.5882 1023.89 66.0588V53.7058V41.4264V36.0588H1029.19H1041.54H1053.82H1059.19C1059.19 36.0588 1059.19 37.848 1059.19 41.4264V53.7058V66.0588V71.3529C1059.19 71.3529 1057.4 71.3529 1053.82 71.3529H1059.19C1059.19 71.3529 1059.19 73.1421 1059.19 76.7206V89V101.353V106.647C1059.19 106.647 1057.4 106.647 1053.82 106.647H1059.19C1059.19 106.647 1059.19 108.436 1059.19 112.015V124.294V136.647V141.941C1059.19 141.941 1057.4 141.941 1053.82 141.941H1059.19C1059.19 141.941 1059.19 143.73 1059.19 147.309V159.588V171.941V177.235C1059.19 177.235 1057.4 177.235 1053.82 177.235H1059.19C1059.19 177.235 1059.19 179.025 1059.19 182.603V194.882V207.235V212.529C1059.19 212.529 1057.4 212.529 1053.82 212.529H1059.19C1059.19 212.529 1059.19 214.319 1059.19 217.897V230.176V242.529V247.824C1059.19 247.824 1057.4 247.824 1053.82 247.824H1059.19C1059.19 247.824 1059.19 249.613 1059.19 253.191V265.471V277.824V283.118C1059.19 283.118 1057.4 283.118 1053.82 283.118H1059.19C1059.19 283.118 1059.19 284.907 1059.19 288.485V300.765V313.118V318.412C1059.19 318.412 1057.4 318.412 1053.82 318.412H1059.19C1059.19 318.412 1059.19 320.201 1059.19 323.779V336.059V348.412V353.706C1059.19 353.706 1057.4 353.706 1053.82 353.706H1041.54H1029.19H1023.89ZM918.01 36.0588C918.01 36.0588 918.01 34.2941 918.01 30.7647V18.4117V6.13233V0.764693H923.304H935.657H947.937H953.304C953.304 0.764693 953.304 2.55391 953.304 6.13233V0.764693H958.598H970.951H983.231H988.598C988.598 0.764693 988.598 2.55391 988.598 6.13233V0.764693H993.892H1006.25H1018.52H1023.89C1023.89 0.764693 1023.89 2.55391 1023.89 6.13233V18.4117V30.7647V36.0588C1023.89 36.0588 1022.1 36.0588 1018.52 36.0588H1006.25H993.892H988.598C988.598 36.0588 988.598 34.2941 988.598 30.7647V36.0588C988.598 36.0588 986.809 36.0588 983.231 36.0588H970.951H958.598H953.304C953.304 36.0588 953.304 34.2941 953.304 30.7647V36.0588C953.304 36.0588 951.515 36.0588 947.937 36.0588H935.657H923.304H918.01ZM1165.28 389C1165.28 389 1165.28 387.235 1165.28 383.706V371.353V359.074V353.706H1170.57H1182.92H1195.2H1200.57C1200.57 353.706 1200.57 355.495 1200.57 359.074V353.706H1205.86H1218.22H1230.5H1235.86C1235.86 353.706 1235.86 355.495 1235.86 359.074V353.706H1241.16H1253.51H1265.79H1271.16C1271.16 353.706 1271.16 355.495 1271.16 359.074V371.353V383.706V389C1271.16 389 1269.37 389 1265.79 389H1253.51H1241.16H1235.86C1235.86 389 1235.86 387.235 1235.86 383.706V389C1235.86 389 1234.07 389 1230.5 389H1218.22H1205.86H1200.57C1200.57 389 1200.57 387.235 1200.57 383.706V389C1200.57 389 1198.78 389 1195.2 389H1182.92H1170.57H1165.28ZM1129.98 353.706C1129.98 353.706 1129.98 351.941 1129.98 348.412V336.059V323.779V318.412C1129.98 318.412 1129.98 316.647 1129.98 313.118V300.765V288.485V283.118C1129.98 283.118 1129.98 281.353 1129.98 277.824V265.471V253.191V247.824C1129.98 247.824 1129.98 246.059 1129.98 242.529V230.176V217.897V212.529C1129.98 212.529 1129.98 210.765 1129.98 207.235V194.882V182.603V177.235C1129.98 177.235 1129.98 175.471 1129.98 171.941V159.588V147.309V141.941C1129.98 141.941 1129.98 140.176 1129.98 136.647V124.294V112.015V106.647C1129.98 106.647 1129.98 104.882 1129.98 101.353V89V76.7206V71.3529C1129.98 71.3529 1129.98 69.5882 1129.98 66.0588V53.7058V41.4264V36.0588H1135.28H1147.63H1159.91H1165.28C1165.28 36.0588 1165.28 37.848 1165.28 41.4264V53.7058V66.0588V71.3529C1165.28 71.3529 1163.49 71.3529 1159.91 71.3529H1165.28C1165.28 71.3529 1165.28 73.1421 1165.28 76.7206V89V101.353V106.647C1165.28 106.647 1163.49 106.647 1159.91 106.647H1165.28C1165.28 106.647 1165.28 108.436 1165.28 112.015V124.294V136.647V141.941C1165.28 141.941 1163.49 141.941 1159.91 141.941H1165.28C1165.28 141.941 1165.28 143.73 1165.28 147.309V159.588V171.941V177.235C1165.28 177.235 1163.49 177.235 1159.91 177.235H1165.28C1165.28 177.235 1165.28 179.025 1165.28 182.603V194.882V207.235V212.529C1165.28 212.529 1163.49 212.529 1159.91 212.529H1165.28C1165.28 212.529 1165.28 214.319 1165.28 217.897V230.176V242.529V247.824C1165.28 247.824 1163.49 247.824 1159.91 247.824H1165.28C1165.28 247.824 1165.28 249.613 1165.28 253.191V265.471V277.824V283.118C1165.28 283.118 1163.49 283.118 1159.91 283.118H1165.28C1165.28 283.118 1165.28 284.907 1165.28 288.485V300.765V313.118V318.412C1165.28 318.412 1163.49 318.412 1159.91 318.412H1165.28C1165.28 318.412 1165.28 320.201 1165.28 323.779V336.059V348.412V353.706C1165.28 353.706 1163.49 353.706 1159.91 353.706H1147.63H1135.28H1129.98ZM1271.16 353.706C1271.16 353.706 1271.16 351.941 1271.16 348.412V336.059V323.779V318.412C1271.16 318.412 1271.16 316.647 1271.16 313.118V300.765V288.485V283.118C1271.16 283.118 1271.16 281.353 1271.16 277.824V265.471V253.191V247.824C1271.16 247.824 1271.16 246.059 1271.16 242.529V230.176V217.897V212.529C1271.16 212.529 1271.16 210.765 1271.16 207.235V194.882V182.603V177.235C1271.16 177.235 1271.16 175.471 1271.16 171.941V159.588V147.309V141.941C1271.16 141.941 1271.16 140.176 1271.16 136.647V124.294V112.015V106.647C1271.16 106.647 1271.16 104.882 1271.16 101.353V89V76.7206V71.3529C1271.16 71.3529 1271.16 69.5882 1271.16 66.0588V53.7058V41.4264V36.0588H1276.45H1288.81H1301.08H1306.45C1306.45 36.0588 1306.45 37.848 1306.45 41.4264V53.7058V66.0588V71.3529C1306.45 71.3529 1304.66 71.3529 1301.08 71.3529H1306.45C1306.45 71.3529 1306.45 73.1421 1306.45 76.7206V89V101.353V106.647C1306.45 106.647 1304.66 106.647 1301.08 106.647H1306.45C1306.45 106.647 1306.45 108.436 1306.45 112.015V124.294V136.647V141.941C1306.45 141.941 1304.66 141.941 1301.08 141.941H1306.45C1306.45 141.941 1306.45 143.73 1306.45 147.309V159.588V171.941V177.235C1306.45 177.235 1304.66 177.235 1301.08 177.235H1306.45C1306.45 177.235 1306.45 179.025 1306.45 182.603V194.882V207.235V212.529C1306.45 212.529 1304.66 212.529 1301.08 212.529H1306.45C1306.45 212.529 1306.45 214.319 1306.45 217.897V230.176V242.529V247.824C1306.45 247.824 1304.66 247.824 1301.08 247.824H1306.45C1306.45 247.824 1306.45 249.613 1306.45 253.191V265.471V277.824V283.118C1306.45 283.118 1304.66 283.118 1301.08 283.118H1306.45C1306.45 283.118 1306.45 284.907 1306.45 288.485V300.765V313.118V318.412C1306.45 318.412 1304.66 318.412 1301.08 318.412H1306.45C1306.45 318.412 1306.45 320.201 1306.45 323.779V336.059V348.412V353.706C1306.45 353.706 1304.66 353.706 1301.08 353.706H1288.81H1276.45H1271.16ZM1165.28 36.0588C1165.28 36.0588 1165.28 34.2941 1165.28 30.7647V18.4117V6.13233V0.764693H1170.57H1182.92H1195.2H1200.57C1200.57 0.764693 1200.57 2.55391 1200.57 6.13233V0.764693H1205.86H1218.22H1230.5H1235.86C1235.86 0.764693 1235.86 2.55391 1235.86 6.13233V0.764693H1241.16H1253.51H1265.79H1271.16C1271.16 0.764693 1271.16 2.55391 1271.16 6.13233V18.4117V30.7647V36.0588C1271.16 36.0588 1269.37 36.0588 1265.79 36.0588H1253.51H1241.16H1235.86C1235.86 36.0588 1235.86 34.2941 1235.86 30.7647V36.0588C1235.86 36.0588 1234.07 36.0588 1230.5 36.0588H1218.22H1205.86H1200.57C1200.57 36.0588 1200.57 34.2941 1200.57 30.7647V36.0588C1200.57 36.0588 1198.78 36.0588 1195.2 36.0588H1182.92H1170.57H1165.28ZM1377.25 389C1377.25 389 1377.25 387.235 1377.25 383.706V371.353V359.074V353.706C1377.25 353.706 1377.25 351.941 1377.25 348.412V336.059V323.779V318.412C1377.25 318.412 1377.25 316.647 1377.25 313.118V300.765V288.485V283.118C1377.25 283.118 1377.25 281.353 1377.25 277.824V265.471V253.191V247.824C1377.25 247.824 1377.25 246.059 1377.25 242.529V230.176V217.897V212.529C1377.25 212.529 1377.25 210.765 1377.25 207.235V194.882V182.603V177.235C1377.25 177.235 1377.25 175.471 1377.25 171.941V159.588V147.309V141.941C1377.25 141.941 1377.25 140.176 1377.25 136.647V124.294V112.015V106.647C1377.25 106.647 1377.25 104.882 1377.25 101.353V89V76.7206V71.3529C1377.25 71.3529 1377.25 69.5882 1377.25 66.0588V53.7058V41.4264V36.0588C1377.25 36.0588 1377.25 34.2941 1377.25 30.7647V18.4117V6.13233V0.764693H1382.54H1394.89H1407.17H1412.54C1412.54 0.764693 1412.54 2.55391 1412.54 6.13233V0.764693H1417.84H1430.19H1442.47H1447.84C1447.84 0.764693 1447.84 2.55391 1447.84 6.13233V0.764693H1453.13H1465.48H1477.76H1483.13C1483.13 0.764693 1483.13 2.55391 1483.13 6.13233V0.764693H1488.42H1500.78H1513.06H1518.42C1518.42 0.764693 1518.42 2.55391 1518.42 6.13233V18.4117V30.7647V36.0588C1518.42 36.0588 1516.63 36.0588 1513.06 36.0588H1500.78H1488.42H1483.13C1483.13 36.0588 1483.13 34.2941 1483.13 30.7647V36.0588C1483.13 36.0588 1481.34 36.0588 1477.76 36.0588H1465.48H1453.13H1447.84C1447.84 36.0588 1447.84 34.2941 1447.84 30.7647V36.0588C1447.84 36.0588 1446.05 36.0588 1442.47 36.0588H1430.19H1417.84H1412.54C1412.54 36.0588 1412.54 34.2941 1412.54 30.7647V36.0588C1412.54 36.0588 1410.75 36.0588 1407.17 36.0588H1412.54C1412.54 36.0588 1412.54 37.848 1412.54 41.4264V53.7058V66.0588V71.3529C1412.54 71.3529 1410.75 71.3529 1407.17 71.3529H1412.54C1412.54 71.3529 1412.54 73.1421 1412.54 76.7206V89V101.353V106.647C1412.54 106.647 1410.75 106.647 1407.17 106.647H1412.54C1412.54 106.647 1412.54 108.436 1412.54 112.015V124.294V136.647V141.941C1412.54 141.941 1410.75 141.941 1407.17 141.941H1412.54C1412.54 141.941 1412.54 143.73 1412.54 147.309V159.588V171.941V177.235C1412.54 177.235 1410.75 177.235 1407.17 177.235H1412.54C1412.54 177.235 1412.54 179.025 1412.54 182.603V194.882V207.235V212.529C1412.54 212.529 1410.75 212.529 1407.17 212.529H1412.54C1412.54 212.529 1412.54 214.319 1412.54 217.897V212.529H1417.84H1430.19H1442.47H1447.84C1447.84 212.529 1447.84 214.319 1447.84 217.897V212.529H1453.13H1465.48H1477.76H1483.13C1483.13 212.529 1483.13 214.319 1483.13 217.897V212.529H1488.42H1500.78H1513.06H1518.42C1518.42 212.529 1518.42 214.319 1518.42 217.897V230.176V242.529V247.824C1518.42 247.824 1516.63 247.824 1513.06 247.824H1500.78H1488.42H1483.13C1483.13 247.824 1483.13 246.059 1483.13 242.529V247.824C1483.13 247.824 1481.34 247.824 1477.76 247.824H1465.48H1453.13H1447.84C1447.84 247.824 1447.84 246.059 1447.84 242.529V247.824C1447.84 247.824 1446.05 247.824 1442.47 247.824H1430.19H1417.84H1412.54C1412.54 247.824 1412.54 246.059 1412.54 242.529V247.824C1412.54 247.824 1410.75 247.824 1407.17 247.824H1412.54C1412.54 247.824 1412.54 249.613 1412.54 253.191V265.471V277.824V283.118C1412.54 283.118 1410.75 283.118 1407.17 283.118H1412.54C1412.54 283.118 1412.54 284.907 1412.54 288.485V300.765V313.118V318.412C1412.54 318.412 1410.75 318.412 1407.17 318.412H1412.54C1412.54 318.412 1412.54 320.201 1412.54 323.779V336.059V348.412V353.706C1412.54 353.706 1410.75 353.706 1407.17 353.706H1412.54C1412.54 353.706 1412.54 355.495 1412.54 359.074V371.353V383.706V389C1412.54 389 1410.75 389 1407.17 389H1394.89H1382.54H1377.25ZM1518.42 212.529C1518.42 212.529 1518.42 210.765 1518.42 207.235V194.882V182.603V177.235C1518.42 177.235 1518.42 175.471 1518.42 171.941V159.588V147.309V141.941C1518.42 141.941 1518.42 140.176 1518.42 136.647V124.294V112.015V106.647C1518.42 106.647 1518.42 104.882 1518.42 101.353V89V76.7206V71.3529C1518.42 71.3529 1518.42 69.5882 1518.42 66.0588V53.7058V41.4264V36.0588H1523.72H1536.07H1548.35H1553.72C1553.72 36.0588 1553.72 37.848 1553.72 41.4264V53.7058V66.0588V71.3529C1553.72 71.3529 1551.93 71.3529 1548.35 71.3529H1553.72C1553.72 71.3529 1553.72 73.1421 1553.72 76.7206V89V101.353V106.647C1553.72 106.647 1551.93 106.647 1548.35 106.647H1553.72C1553.72 106.647 1553.72 108.436 1553.72 112.015V124.294V136.647V141.941C1553.72 141.941 1551.93 141.941 1548.35 141.941H1553.72C1553.72 141.941 1553.72 143.73 1553.72 147.309V159.588V171.941V177.235C1553.72 177.235 1551.93 177.235 1548.35 177.235H1553.72C1553.72 177.235 1553.72 179.025 1553.72 182.603V194.882V207.235V212.529C1553.72 212.529 1551.93 212.529 1548.35 212.529H1536.07H1523.72H1518.42Z" fill="#D9D9D9"/>
</g>
<defs>
<clipPath id="clip0_1_2">
<rect width="1554" height="460" fill="white"/>
</clipPath>
</defs>
</svg>
