<svg width="802" height="802" viewBox="0 0 802 802" fill="none" xmlns="http://www.w3.org/2000/svg">
<g clip-path="url(#clip0_9_10)">
<rect width="802" height="802" rx="200" fill="#35383F"/>
<mask id="mask0_9_10" style="mask-type:alpha" maskUnits="userSpaceOnUse" x="128" y="42" width="539" height="700">
<mask id="mask1_9_10" style="mask-type:alpha" maskUnits="userSpaceOnUse" x="128" y="42" width="539" height="700">
<mask id="mask2_9_10" style="mask-type:alpha" maskUnits="userSpaceOnUse" x="173" y="42" width="453" height="225">
<rect x="173.253" y="42" width="452" height="225" fill="#D9D9D9"/>
</mask>
<g mask="url(#mask2_9_10)">
<circle cx="398.253" cy="267" r="162.5" stroke="black" stroke-width="125"/>
</g>
<path d="M558.506 356.75L450.253 263L666.76 263L558.506 356.75Z" fill="black"/>
<mask id="mask3_9_10" style="mask-type:alpha" maskUnits="userSpaceOnUse" x="168" y="517" width="453" height="225">
<rect x="620.253" y="742" width="452" height="225" transform="rotate(-180 620.253 742)" fill="#D9D9D9"/>
</mask>
<g mask="url(#mask3_9_10)">
<circle cx="395.253" cy="517" r="162.5" transform="rotate(-180 395.253 517)" stroke="black" stroke-width="125"/>
</g>
<path d="M236.253 425L344.506 518.75H128L236.253 425Z" fill="black"/>
<rect x="495.253" y="392" width="125" height="125" fill="black"/>
<rect x="173.253" y="267" width="125" height="125" fill="black"/>
<mask id="mask4_9_10" style="mask-type:alpha" maskUnits="userSpaceOnUse" x="495" y="521" width="125" height="221">
<rect x="495" y="521" width="125" height="221" fill="#D9D9D9"/>
</mask>
<g mask="url(#mask4_9_10)">
<path d="M620 492V742L370 492H620Z" fill="#2B3237"/>
</g>
</mask>
<g mask="url(#mask1_9_10)">
<rect x="128.253" y="42" width="539" height="701" fill="#2B3237"/>
</g>
</mask>
<g mask="url(#mask0_9_10)">
<rect x="128" y="42" width="539" height="700" fill="url(#paint0_linear_9_10)"/>
</g>
</g>
<defs>
<linearGradient id="paint0_linear_9_10" x1="397.5" y1="42" x2="397.5" y2="742" gradientUnits="userSpaceOnUse">
<stop stop-color="#ABBEC8"/>
<stop offset="1" stop-color="#7493A3"/>
</linearGradient>
<clipPath id="clip0_9_10">
<rect width="802" height="802" fill="white"/>
</clipPath>
</defs>
</svg>
